<mxfile host="app.diagrams.net" modified="2020-12-08T10:33:54.496Z" agent="5.0 (Windows NT 10.0; Win64; x64) AppleWebKit/537.36 (KHTML, like Gecko) Chrome/87.0.4280.88 Safari/537.36" etag="h8LESO6_3lnSumFoTlG8" version="13.10.9" type="github">
  <diagram name="Page-1" id="e7e014a7-5840-1c2e-5031-d8a46d1fe8dd">
    <mxGraphModel dx="1422" dy="780" grid="1" gridSize="10" guides="1" tooltips="1" connect="1" arrows="1" fold="1" page="1" pageScale="1" pageWidth="980" pageHeight="1390" background="#ffffff" math="0" shadow="0">
      <root>
        <mxCell id="0" />
        <mxCell id="1" parent="0" />
        <mxCell id="H85ItWtwwnXYT-WH__-k-42" value="" style="ellipse;fillColor=#000000;strokeColor=none;aspect=fixed;" vertex="1" parent="1">
          <mxGeometry x="470" y="100" width="40" height="41.03" as="geometry" />
        </mxCell>
        <mxCell id="H85ItWtwwnXYT-WH__-k-43" value="نمایش منوی رستوران" style="shape=rect;html=1;rounded=1;whiteSpace=wrap;align=center;fontSize=21;fontStyle=1" vertex="1" parent="1">
          <mxGeometry x="403" y="330" width="174" height="70" as="geometry" />
        </mxCell>
        <mxCell id="H85ItWtwwnXYT-WH__-k-44" value="" style="endArrow=open;endFill=1;endSize=12;html=1;fontSize=21;exitX=0.5;exitY=1;exitDx=0;exitDy=0;entryX=0.5;entryY=0;entryDx=0;entryDy=0;" edge="1" parent="1" source="H85ItWtwwnXYT-WH__-k-42" target="H85ItWtwwnXYT-WH__-k-51">
          <mxGeometry width="160" relative="1" as="geometry">
            <mxPoint x="515" y="480" as="sourcePoint" />
            <mxPoint x="675" y="480" as="targetPoint" />
          </mxGeometry>
        </mxCell>
        <mxCell id="H85ItWtwwnXYT-WH__-k-45" value="" style="endArrow=open;endFill=1;endSize=12;html=1;fontSize=21;exitX=0.5;exitY=1;exitDx=0;exitDy=0;entryX=0.5;entryY=0;entryDx=0;entryDy=0;" edge="1" parent="1" source="H85ItWtwwnXYT-WH__-k-43" target="H85ItWtwwnXYT-WH__-k-47">
          <mxGeometry width="160" relative="1" as="geometry">
            <mxPoint x="489.5" y="430" as="sourcePoint" />
            <mxPoint x="490" y="480" as="targetPoint" />
          </mxGeometry>
        </mxCell>
        <mxCell id="H85ItWtwwnXYT-WH__-k-46" value="" style="endArrow=open;endFill=1;endSize=12;html=1;fontSize=21;exitX=0.5;exitY=1;exitDx=0;exitDy=0;entryX=0.5;entryY=0;entryDx=0;entryDy=0;" edge="1" parent="1" source="H85ItWtwwnXYT-WH__-k-47" target="H85ItWtwwnXYT-WH__-k-49">
          <mxGeometry width="160" relative="1" as="geometry">
            <mxPoint x="490" y="560" as="sourcePoint" />
            <mxPoint x="490" y="630" as="targetPoint" />
          </mxGeometry>
        </mxCell>
        <mxCell id="H85ItWtwwnXYT-WH__-k-47" value="&lt;span style=&quot;font-size: 19px&quot;&gt;تیک زدن وعده ی موردنظر&lt;/span&gt;" style="shape=rect;html=1;rounded=1;whiteSpace=wrap;align=center;fontSize=21;fontStyle=1" vertex="1" parent="1">
          <mxGeometry x="403" y="460" width="174" height="70" as="geometry" />
        </mxCell>
        <mxCell id="H85ItWtwwnXYT-WH__-k-48" value="" style="ellipse;html=1;shape=endState;fillColor=#000000;strokeColor=#000000;aspect=fixed;" vertex="1" parent="1">
          <mxGeometry x="485.25" y="1090" width="43.5" height="43.5" as="geometry" />
        </mxCell>
        <mxCell id="H85ItWtwwnXYT-WH__-k-49" value="&lt;span style=&quot;font-size: 19px&quot;&gt;کلیک کردن بر روی ثبت سفارش&lt;br&gt;&lt;/span&gt;" style="shape=rect;html=1;rounded=1;whiteSpace=wrap;align=center;fontSize=21;fontStyle=1" vertex="1" parent="1">
          <mxGeometry x="403" y="580" width="174" height="70" as="geometry" />
        </mxCell>
        <mxCell id="H85ItWtwwnXYT-WH__-k-50" value="" style="endArrow=open;endFill=1;endSize=12;html=1;fontSize=21;exitX=0.5;exitY=1;exitDx=0;exitDy=0;entryX=0.5;entryY=0;entryDx=0;entryDy=0;" edge="1" parent="1" source="H85ItWtwwnXYT-WH__-k-55" target="H85ItWtwwnXYT-WH__-k-48">
          <mxGeometry width="160" relative="1" as="geometry">
            <mxPoint x="490" y="680" as="sourcePoint" />
            <mxPoint x="500" y="920" as="targetPoint" />
          </mxGeometry>
        </mxCell>
        <mxCell id="H85ItWtwwnXYT-WH__-k-51" value="کلیک کردن بر روی نمایه فروش رستوران" style="shape=rect;html=1;rounded=1;whiteSpace=wrap;align=center;fontSize=21;fontStyle=1" vertex="1" parent="1">
          <mxGeometry x="403" y="200" width="174" height="70" as="geometry" />
        </mxCell>
        <mxCell id="H85ItWtwwnXYT-WH__-k-52" value="" style="endArrow=open;endFill=1;endSize=12;html=1;fontSize=21;exitX=0.5;exitY=1;exitDx=0;exitDy=0;entryX=0.5;entryY=0;entryDx=0;entryDy=0;" edge="1" parent="1" source="H85ItWtwwnXYT-WH__-k-51" target="H85ItWtwwnXYT-WH__-k-43">
          <mxGeometry width="160" relative="1" as="geometry">
            <mxPoint x="500" y="151.02999999999997" as="sourcePoint" />
            <mxPoint x="500" y="210" as="targetPoint" />
          </mxGeometry>
        </mxCell>
        <mxCell id="H85ItWtwwnXYT-WH__-k-53" value="&lt;span style=&quot;font-size: 20px&quot;&gt;نمایش نتیجه سفارش&lt;br&gt;( لیست غذا و قیمت )&lt;br&gt;&lt;/span&gt;" style="shape=rect;html=1;rounded=1;whiteSpace=wrap;align=center;fontSize=21;fontStyle=1" vertex="1" parent="1">
          <mxGeometry x="403" y="710" width="174" height="70" as="geometry" />
        </mxCell>
        <mxCell id="H85ItWtwwnXYT-WH__-k-54" value="&lt;span style=&quot;font-size: 19px&quot;&gt;&lt;br&gt;&lt;/span&gt;" style="shape=rect;html=1;rounded=1;whiteSpace=wrap;align=center;fontSize=21;fontStyle=1" vertex="1" parent="1">
          <mxGeometry x="403" y="840" width="174" height="70" as="geometry" />
        </mxCell>
        <mxCell id="H85ItWtwwnXYT-WH__-k-55" value="&lt;span style=&quot;font-size: 19px&quot;&gt;&lt;br&gt;&lt;/span&gt;" style="shape=rect;html=1;rounded=1;whiteSpace=wrap;align=center;fontSize=21;fontStyle=1" vertex="1" parent="1">
          <mxGeometry x="420" y="950" width="174" height="70" as="geometry" />
        </mxCell>
        <mxCell id="H85ItWtwwnXYT-WH__-k-56" value="" style="endArrow=open;endFill=1;endSize=12;html=1;fontSize=21;exitX=0.5;exitY=1;exitDx=0;exitDy=0;entryX=0.5;entryY=0;entryDx=0;entryDy=0;" edge="1" parent="1" source="H85ItWtwwnXYT-WH__-k-53" target="H85ItWtwwnXYT-WH__-k-54">
          <mxGeometry width="160" relative="1" as="geometry">
            <mxPoint x="870.0000000000005" y="660.0000000000002" as="sourcePoint" />
            <mxPoint x="880" y="720" as="targetPoint" />
          </mxGeometry>
        </mxCell>
        <mxCell id="H85ItWtwwnXYT-WH__-k-58" value="" style="endArrow=open;endFill=1;endSize=12;html=1;fontSize=21;exitX=0.5;exitY=1;exitDx=0;exitDy=0;entryX=0.5;entryY=0;entryDx=0;entryDy=0;" edge="1" parent="1" source="H85ItWtwwnXYT-WH__-k-49" target="H85ItWtwwnXYT-WH__-k-53">
          <mxGeometry width="160" relative="1" as="geometry">
            <mxPoint x="520.0000000000005" y="631.0000000000002" as="sourcePoint" />
            <mxPoint x="500" y="750" as="targetPoint" />
          </mxGeometry>
        </mxCell>
      </root>
    </mxGraphModel>
  </diagram>
</mxfile>
